<?xml version="1.0" standalone="no"?>
<!DOCTYPE svg PUBLIC "-//W3C//DTD SVG 20010904//EN"
 "http://www.w3.org/TR/2001/REC-SVG-20010904/DTD/svg10.dtd">
<svg version="1.0" xmlns="http://www.w3.org/2000/svg"
 width="16.000000pt" height="16.000000pt" viewBox="0 0 16.000000 16.000000"
 preserveAspectRatio="xMidYMid meet">
<metadata>
Created by potrace 1.11, written by Peter Selinger 2001-2013
</metadata>
<g transform="translate(0.000000,16.000000) scale(0.006250,-0.006250)"
fill="#000000" stroke="none">
<path d="M0 2255 l0 -305 85 0 c83 0 85 -1 85 -24 0 -45 -10 -56 -49 -56 -63
0 -80 -43 -40 -106 15 -25 19 -46 17 -91 l-3 -58 -48 0 -47 0 0 -297 c0 -164
2 -298 5 -298 3 0 11 16 19 35 9 20 29 43 47 53 18 9 47 29 64 44 35 30 45 34
45 17 0 -12 2 -10 -103 -102 l-77 -69 0 -499 0 -499 1280 0 1280 0 0 837 c0
817 0 836 -19 819 -21 -19 -185 -34 -195 -18 -3 5 20 35 51 68 31 32 66 75 78
94 12 19 30 41 39 49 9 7 16 21 16 30 0 10 7 26 15 37 12 16 14 73 15 332 l0
312 -1174 0 c-1110 0 -1175 -1 -1180 -17 -10 -35 -35 -179 -40 -233 -5 -50 8
-118 27 -136 13 -13 7 -93 -9 -126 -20 -43 -53 -66 -101 -73 -67 -10 -65 -15
-54 246 6 129 13 258 15 287 4 49 3 52 -20 52 l-24 0 0 -305z m2405 -676 c11
-17 0 -20 -21 -4 -17 13 -17 14 -2 15 9 0 20 -5 23 -11z m-165 -574 l0 -30
-25 28 c-14 15 -32 27 -40 27 -20 0 -19 19 2 43 17 18 18 18 40 -10 13 -15 23
-41 23 -58z m-30 -149 c6 -18 18 -26 42 -28 24 -2 37 -11 51 -36 44 -74 -40
-59 -107 20 -27 32 -33 44 -25 55 17 19 28 16 39 -11z"/>
</g>
</svg>
