<?xml version="1.0" encoding="utf-8"?>
<!-- Generator: Adobe Illustrator 21.0.2, SVG Export Plug-In . SVG Version: 6.00 Build 0)  -->
<svg version="1.1" xmlns="http://www.w3.org/2000/svg" xmlns:xlink="http://www.w3.org/1999/xlink" x="0px" y="0px"
	 viewBox="0 0 407.3 149" style="enable-background:new 0 0 407.3 149;" xml:space="preserve">
<style type="text/css">
	.st0{fill:#CCCCCC;}
	.st1{fill:none;stroke:#808080;stroke-miterlimit:10;}
	.st2{fill:#808080;}
	.st3{fill:#998675;}
	.st4{fill:#4D4D4D;}
</style>
<g id="Layer_1">
	<rect class="st0" width="407.3" height="149"/>
</g>
<g id="Layer_2">
	<polyline class="st1" points="256.5,67.6 275.4,67.4 275.4,48.5 306,48.5 306,113.3 268.5,113.3 268.5,96.3 	"/>
	<polyline class="st1" points="306,62.8 324.5,62.8 324.5,19.3 333,19.3 333,132.3 366.5,132.3 	"/>
	<polyline class="st1" points="332.7,47.6 379.3,47.6 379.3,69.6 356,69.6 356,82.6 365.3,82.6 365.3,76.3 397,76.3 	"/>
	<polyline class="st1" points="101.7,69.9 61.7,69.9 61.7,76.3 70.3,76.3 70.3,100.6 41,100.6 41,47 	"/>
	<polyline class="st1" points="219.7,49.2 219.7,24.6 309.7,24.6 309.7,10.6 	"/>
	<polyline class="st1" points="204.3,100 204.3,126.6 237.7,126.6 237.7,134.6 323.7,134.6 323.7,73.3 311.7,73.3 	"/>
	<polyline class="st1" points="215,126.6 215,114 249.7,114 249.7,106.6 261.8,106.6 	"/>
	<polyline class="st1" points="243.7,113.9 243.7,120.6 258.3,120.6 258.3,126 289.7,126 	"/>
	<polyline class="st1" points="253.7,90 275.3,90 275.3,104.6 296,104.6 296,82.8 276.5,82.8 276.5,74.8 	"/>
	<line class="st1" x1="268.2" y1="67.5" x2="268.2" y2="76"/>
	<polyline class="st1" points="305.9,84.8 315.5,84.8 315.5,120.3 294,120.3 	"/>
	<polyline class="st1" points="304.5,134.5 304.5,127.3 315,127.3 	"/>
	<polyline class="st1" points="275,55.3 269,55.3 269,38.8 314.5,38.8 314.5,53.3 	"/>
	<polyline class="st1" points="346,53.3 346,91.8 378.5,91.8 378.5,81.8 	"/>
	<polyline class="st1" points="368,47.3 368,60.8 355,60.8 	"/>
	<polyline class="st1" points="345.5,70.3 339,70.3 339,99.8 365.5,99.8 365.5,112.3 356.5,112.3 356.5,105.8 346,105.8 	"/>
	<polyline class="st1" points="332.5,112.8 347.5,112.8 347.5,123.3 377,123.3 377,101.8 386.5,101.8 386.5,85.3 394.5,85.3 
		394.5,111.8 383.5,111.8 383.5,133.3 394,133.3 	"/>
	<polyline class="st1" points="383,117.3 389,117.3 389,127.8 	"/>
	<polyline class="st1" points="269.1,46.3 253,46.3 253,35.3 245.5,35.3 245.5,30.3 229.5,30.3 	"/>
	<polyline class="st1" points="245.5,35.3 245.5,41.3 234,41.3 234,34.8 	"/>
	<polyline class="st1" points="258,24.3 258,34.3 283,34.3 283,29.8 315.5,29.8 315.5,33.3 324,33.3 	"/>
	<polyline class="st1" points="309.8,18.8 316,18.8 316,9.8 346,9.8 346,26.3 338.5,26.3 338.5,39.8 	"/>
	<polyline class="st1" points="346,13.8 358,13.8 358,33.8 344.5,33.8 	"/>
	<polyline class="st1" points="356.5,47.8 356.5,39.8 394.5,39.8 394.5,67.3 	"/>
	<polyline class="st1" points="394,52.3 386,52.3 386,59.8 	"/>
	<polyline class="st1" points="370.5,39.9 370.5,25.8 394.5,25.8 	"/>
	<line class="st1" x1="358" y1="20.3" x2="392.5" y2="20.3"/>
	<polyline class="st1" points="363.5,19.8 363.5,9.8 396,9.8 396,14.8 	"/>
	<polyline class="st1" points="225,24.3 225,11.8 246.5,11.8 246.5,17.8 298.5,17.8 	"/>
	<polyline class="st1" points="266.5,17.3 266.5,10.3 298.5,10.3 	"/>
	<polyline class="st1" points="120,52.2 120,23.8 28,23.8 28,85.3 11,85.3 11,64.3 	"/>
	<polyline class="st1" points="32.5,88.3 32.5,108.8 52,108.8 52,129.8 161,129.8 161,108.3 174.5,108.3 174.5,67.3 	"/>
	<polyline class="st1" points="33.5,23.3 33.5,34.8 74,34.8 74,51.3 66,51.3 	"/>
	<polyline class="st1" points="97.5,58.8 62.5,58.8 62.5,42.8 47.5,42.8 	"/>
	<polyline class="st1" points="65.5,34.8 65.5,29.3 88.5,29.3 88.5,38.3 80,38.3 80,53.3 	"/>
	<polyline class="st1" points="120,36.3 101,36.3 101,28.8 	"/>
	<polyline class="st1" points="111.5,52.3 111.5,44.8 88.5,44.8 	"/>
	<polyline class="st1" points="58.5,129.3 58.5,110.8 80.5,110.8 80.5,77.3 88.5,77.3 	"/>
	<polyline class="st1" points="161.5,113.3 106.5,113.3 106.5,101.8 93,101.8 	"/>
	<polyline class="st1" points="142,113.3 142,121.8 92,121.8 92,108.8 96.5,108.8 	"/>
	<polyline class="st1" points="65.5,110.3 65.5,117.8 82.5,117.8 82.5,123.8 	"/>
	<polyline class="st1" points="80,87.3 94,87.3 94,93.3 	"/>
	<polyline class="st1" points="57.7,24 57.7,12 17,12 17,53.3 9.7,53.3 9.7,22.6 	"/>
	<polyline class="st1" points="28,56.6 22.7,56.6 22.7,75.3 	"/>
	<polyline class="st1" points="32,94.6 9.3,94.6 9.3,134 37.3,134 	"/>
	<polyline class="st1" points="40.3,108.6 40.3,121.3 17.7,121.3 17.7,106 	"/>
	<line class="st1" x1="23.7" y1="95" x2="23.7" y2="113.6"/>
	<line class="st1" x1="191" y1="106" x2="204.3" y2="106"/>
	<polyline class="st1" points="168,108.3 168,137 219.3,137 	"/>
	<polyline class="st1" points="183,137 183,122.3 193.7,122.3 	"/>
	<polyline class="st1" points="69.7,23.8 69.7,10.6 141,10.6 141,32 157,32 	"/>
	<polyline class="st1" points="83.7,11 83.7,17 129,17 129,40.3 145,40.3 	"/>
	<polyline class="st1" points="141.1,22 167.7,22 167.7,45.3 153,45.3 153,50.6 	"/>
	<polyline class="st1" points="201.2,53.9 201.2,12 154.3,12 	"/>
	<polyline class="st1" points="219.6,35.3 209,35.3 209,16.6 216.3,16.6 	"/>
	<polyline class="st1" points="183,63 183,26.3 190.3,26.3 190.3,46.3 	"/>
	<polyline class="st1" points="182.7,52 174.7,52 174.7,17.3 	"/>
	<circle class="st2" cx="309.7" cy="10.6" r="1.5"/>
	<circle class="st2" cx="299" cy="10.3" r="1.5"/>
	<circle class="st2" cx="298.5" cy="17.8" r="1.5"/>
	<circle class="st2" cx="314.5" cy="53.3" r="1.5"/>
	<circle class="st2" cx="338.5" cy="39.8" r="1.5"/>
	<circle class="st2" cx="344.5" cy="33.8" r="1.5"/>
	<circle class="st2" cx="346" cy="53.3" r="1.5"/>
	<circle class="st2" cx="396" cy="14.8" r="1.5"/>
	<circle class="st2" cx="392.5" cy="20.3" r="1.5"/>
	<circle class="st2" cx="394.5" cy="25.8" r="1.5"/>
	<circle class="st2" cx="355" cy="60.8" r="1.5"/>
	<circle class="st2" cx="386" cy="59.8" r="1.5"/>
	<circle class="st2" cx="394.5" cy="67.3" r="1.5"/>
	<circle class="st2" cx="311.7" cy="73.3" r="1.5"/>
	<circle class="st2" cx="397" cy="76.3" r="1.5"/>
	<circle class="st2" cx="378.5" cy="81.8" r="1.5"/>
	<circle class="st2" cx="346" cy="106" r="1.5"/>
	<circle class="st2" cx="366.5" cy="132.3" r="1.5"/>
	<circle class="st2" cx="389" cy="127.8" r="1.5"/>
	<circle class="st2" cx="394" cy="133.3" r="1.5"/>
	<circle class="st2" cx="41" cy="47" r="1.5"/>
	<circle class="st2" cx="11" cy="64.3" r="1.5"/>
	<circle class="st2" cx="22.7" cy="75.3" r="1.5"/>
	<circle class="st2" cx="32.7" cy="88.1" r="1.5"/>
	<circle class="st2" cx="23.7" cy="113.6" r="1.5"/>
	<circle class="st2" cx="17.7" cy="106" r="1.5"/>
	<circle class="st2" cx="37.3" cy="134" r="1.5"/>
	<circle class="st2" cx="88.5" cy="77.3" r="1.5"/>
	<circle class="st2" cx="94" cy="93.3" r="1.5"/>
	<circle class="st2" cx="82.5" cy="124" r="1.5"/>
	<circle class="st2" cx="93" cy="101.8" r="1.5"/>
	<circle class="st2" cx="96.5" cy="108.8" r="1.5"/>
	<circle class="st2" cx="67.3" cy="51.1" r="1.5"/>
	<circle class="st2" cx="80" cy="53.3" r="1.5"/>
	<circle class="st2" cx="88.5" cy="44.8" r="1.5"/>
	<circle class="st2" cx="47.5" cy="42.8" r="1.5"/>
	<circle class="st2" cx="9.7" cy="22.6" r="1.5"/>
	<circle class="st2" cx="101" cy="29.5" r="1.5"/>
	<circle class="st2" cx="145" cy="40.3" r="1.5"/>
	<circle class="st2" cx="157" cy="32" r="1.5"/>
	<circle class="st2" cx="154.3" cy="12" r="1.5"/>
	<circle class="st2" cx="174.7" cy="17.1" r="1.5"/>
	<circle class="st2" cx="190.3" cy="46.3" r="1.5"/>
	<circle class="st2" cx="216.3" cy="16.6" r="1.5"/>
	<circle class="st2" cx="229.5" cy="30.3" r="1.5"/>
	<circle class="st2" cx="234" cy="35.8" r="1.5"/>
	<circle class="st2" cx="268.2" cy="76" r="1.5"/>
	<circle class="st2" cx="276.5" cy="74.8" r="1.5"/>
	<circle class="st2" cx="191" cy="106" r="1.5"/>
	<circle class="st2" cx="193.7" cy="122.3" r="1.5"/>
	<circle class="st2" cx="219.3" cy="137" r="1.5"/>
	<circle class="st2" cx="261.8" cy="106.6" r="1.5"/>
	<circle class="st2" cx="268.5" cy="96.3" r="1.5"/>
	<circle class="st2" cx="289.7" cy="126" r="1.5"/>
	<circle class="st2" cx="294" cy="120.3" r="1.5"/>
	<circle class="st2" cx="315" cy="127.3" r="1.5"/>
	<rect x="32.6" y="7.4" class="st0" width="10.5" height="12.5"/>
	<g>
		<path class="st2" d="M38.4,8.3V9c0.3,0,0.6,0.2,0.8,0.3s0.4,0.4,0.6,0.7L39,10.5c-0.2-0.4-0.5-0.6-0.9-0.6c-0.2,0-0.4,0.1-0.6,0.2
			s-0.2,0.3-0.2,0.5c0,0.2,0.1,0.3,0.2,0.5c0.1,0.1,0.4,0.3,0.7,0.4c0.3,0.1,0.6,0.3,0.8,0.4s0.4,0.2,0.5,0.4
			c0.3,0.3,0.4,0.7,0.4,1.2c0,0.4-0.1,0.8-0.4,1.2c-0.3,0.3-0.6,0.6-1.1,0.7V16h-0.7v-0.8c-0.5-0.1-0.9-0.3-1.2-0.5S36.1,14,36,13.5
			l0.9-0.2c0.1,0.4,0.3,0.7,0.4,0.8c0.2,0.2,0.4,0.2,0.7,0.2c0.3,0,0.5-0.1,0.7-0.3c0.2-0.2,0.3-0.4,0.3-0.7c0-0.3-0.1-0.5-0.2-0.6
			c-0.1-0.1-0.2-0.2-0.4-0.3s-0.4-0.2-0.6-0.3c-0.5-0.2-0.8-0.4-1-0.6c-0.3-0.3-0.4-0.6-0.4-1c0-0.2,0-0.4,0.1-0.5s0.1-0.3,0.3-0.4
			s0.3-0.2,0.4-0.3s0.4-0.2,0.6-0.2V8.3H38.4z"/>
	</g>
	<rect x="105.4" y="125.4" class="st0" width="17" height="9.1"/>
	<ellipse class="st1" cx="113.7" cy="130" rx="5.5" ry="3.7"/>
	<path class="st2" d="M117.3,132.8c0,0,0.6,1.5,3.9,0.8c0,0-2.7-0.5-2.6-1.6C118.5,130.9,117.3,132.8,117.3,132.8z"/>
	<rect x="373.8" y="6.4" class="st0" width="10" height="9.3"/>
	<polygon class="st1" points="376.9,6.6 376.9,14.1 379.2,13.2 381.9,12.1 	"/>
	<line class="st1" x1="379.6" y1="13.1" x2="381.1" y2="16.6"/>
	<polyline class="st1" points="67,129.3 67,138 93.7,138 	"/>
	<circle class="st2" cx="93.7" cy="138" r="1.5"/>
	<path class="st3" d="M164.1,66.1c0,0,4.2-3.8,13.8-4s15.5,4,15.5,4l-1.8,5.2c0,0-8.5-3.5-14-3.5s-10.5,2.8-10.5,2.8L164.1,66.1z"/>
	<path class="st3" d="M251.1,51.5l-25.2-3.2c0,0-15.4-1.9-24.6,3.1S191.1,62,191.1,62s-2.4,8.1,1.5,23.4s17.8,17.4,17.8,17.4
		s23,3.9,33.5-2.2s11.7-13.7,12.2-19.4c0.3-2.9,0.6-11.8,0.6-11.8s0.1-5.1,3.1-7s1.6-7.1,1.6-7.1s-0.4-1.8-3.2-2.5
		C255.3,52,251.1,51.5,251.1,51.5z"/>
	<path class="st0" d="M219.6,54.2c-4.3-0.2-11.8-0.1-16.8,3.9s-5,5.4-5,5.4s-2.6,2.1-0.6,15s10.4,17.2,10.4,17.2s8.2,4.2,24.9,2
		s18.2-15.9,18.4-23.4c0.1-3.2-0.3-8.4-2.8-12.6c-1.8-3-3.5-4.2-5.1-4.8C237.3,55.2,225.5,54.4,219.6,54.2z"/>
	<path class="st4" d="M229,67.2c0.7,1.3,0.9,2.8,0.9,4.5c0,5-4.5,9.1-10,9.1c-5.5,0-10-4.1-10-9.1c0-2.3,0.2-4.2,1.5-5.8
		c0,0-5.3,0.7-7.2,2.8l-0.7-1c0,0,2.2-4.7,15.8-4.5c13.6,0.2,23.1,5.1,24.4,8.2l-0.9,0.8c0,0-3.6-2.6-6.3-3.5S229,67.2,229,67.2z"/>
	<path class="st3" d="M107.3,52l25.3-3.2c0,0,15.4-1.9,24.6,3.1s10.1,10.6,10.1,10.6s2.4,8.1-1.5,23.4S148,103.3,148,103.3
		s-23,3.9-33.5-2.2s-11.7-13.7-12.2-19.4c-0.3-2.9-0.6-11.8-0.6-11.8s-0.1-5.1-3.1-7s-1.6-7.1-1.6-7.1s0.4-1.8,3.2-2.5
		S107.3,52,107.3,52z"/>
	<path class="st0" d="M138.8,54.7c4.3-0.2,11.8-0.1,16.8,3.9s5,5.4,5,5.4s2.6,2.1,0.6,15s-10.4,17.2-10.4,17.2s-8.2,4.2-24.9,2
		s-18.2-15.9-18.4-23.4c-0.1-3.2,0.3-8.4,2.8-12.6c1.8-3,3.5-4.2,5.1-4.8C121.1,55.7,132.9,54.9,138.8,54.7z"/>
	<path class="st4" d="M130,67.6c-0.7,1.3-0.9,2.8-0.9,4.5c0,5,4.5,9.1,10,9.1s10-4.1,10-9.1c0-2.3-0.2-4.2-1.5-5.8
		c0,0,5.3,0.7,7.2,2.8l0.7-1c0,0-2.2-4.7-15.8-4.5c-13.6,0.2-23.1,5.1-24.4,8.2l0.9,0.8c0,0,3.6-2.6,6.3-3.5S130,67.6,130,67.6z"/>
</g>
</svg>
